<svg width="102" height="34" viewBox="0 0 102 34" fill="none" xmlns="http://www.w3.org/2000/svg"><path d="M48.27 10.73c-.248-.14-.922-.28-1.668-.28-1.561 0-2.874.77-3.549 1.887V10.8h-4.4v15.62h4.4v-9.68c.32-1.432 1.526-2.201 3.017-2.201.816 0 1.597.175 2.2.524V10.73zM59.684 21.318c-.354 1.328-1.455 1.957-2.945 1.957-1.953 0-3.301-1.397-3.443-3.739h10.577v-1.328c0-4.578-2.556-7.758-7.205-7.758-4.437 0-7.631 3.46-7.631 8.178 0 4.822 3.088 8.142 7.702 8.142 3.975 0 6.46-2.132 7.027-5.452h-4.081zm-2.98-7.338c1.81 0 2.803 1.293 2.838 2.935h-6.14c.39-1.922 1.597-2.935 3.301-2.935zM69.649 3.706h-4.401V26.42h4.401V3.706zM85.103 26.42v-9.96c0-3.738-2.449-6.01-6.672-6.01-3.62 0-6.212 2.167-6.673 4.998h4.188c.355-.91 1.1-1.468 2.343-1.468 1.774 0 2.59 1.083 2.59 2.411v1.153c-.638-.454-2.236-.908-3.62-.908-3.442 0-6.14 2.027-6.14 4.997 0 3.25 2.698 5.067 5.892 5.067 1.739 0 3.336-.594 3.868-1.118v.838h4.224zm-4.224-4.263c-.39.839-1.597 1.363-2.874 1.363-1.384 0-2.804-.56-2.804-1.922 0-1.328 1.42-1.922 2.804-1.922 1.277 0 2.484.524 2.874 1.363v1.118zM93.447 32.186l8.269-21.386H97.28l-3.62 10.379-3.656-10.38h-4.65l6.07 15.691-2.308 5.696h4.33z" fill="#04080A"/><path fill-rule="evenodd" clip-rule="evenodd" d="M17 5.061L5.061 17 17 28.939 28.939 17 17 5.061zM0 17l17 17 17-17L17 0 0 17z" fill="#594AFF"/><path fill-rule="evenodd" clip-rule="evenodd" d="M12.18 9.882L5.06 17l7.118 7.118L19.297 17l-7.118-7.118zM0 17l12.18 12.18L24.357 17 12.18 4.82 0 17z" fill="#594AFF"/><path fill-rule="evenodd" clip-rule="evenodd" d="M7.373 14.688L5.06 17l2.312 2.311L9.684 17l-2.311-2.312zM0 17l7.373 7.373L14.746 17 7.373 9.627 0 17z" fill="#594AFF"/></svg>